<?xml version="1.0" encoding="UTF-8"?>
<svg version="1.1" xmlns="http://www.w3.org/2000/svg" width="500" height="500">
<path d="M0 0 C2 2.0625 2 2.0625 3 5 C2.66015625 7.08203125 2.66015625 7.08203125 2.0625 9.375 C0.8770289 13.93566588 0.89236407 16.6226023 3 21 C6.77436542 25.06989738 11.09408295 28.39373157 16 31 C16 29.02 16 27.04 16 25 C15.236875 24.896875 14.47375 24.79375 13.6875 24.6875 C10.73355011 23.9318384 9.66273336 23.53785617 8 21 C7.29458083 16.9438398 7.67879423 15.45747488 10.0625 12.0625 C13 10 13 10 16.5625 9.75 C17.696875 10.1625 18.83125 10.575 20 11 C20.48210937 12.03511719 20.96421875 13.07023438 21.4609375 14.13671875 C24.52051416 19.86288546 30.52358531 22.15625946 36.0625 25.0625 C37.14466797 25.64837891 38.22683594 26.23425781 39.34179688 26.83789062 C41.49464436 28.00148725 43.65166744 29.15739461 45.81298828 30.30517578 C50.56319002 32.83129042 55.2811448 35.41593529 60 38 C60 38.99 60 39.98 60 41 C59.24976563 41.36351562 58.49953125 41.72703125 57.7265625 42.1015625 C51.62110268 45.10046594 45.85620372 48.22617408 40.25390625 52.09375 C38 53 38 53 35.71484375 52.44921875 C31.35027941 50.11935779 27.09966345 47.60057767 22.8828125 45.01367188 C18.91893681 42.65329865 18.91893681 42.65329865 14.44921875 41.9765625 C11.06456091 43.39088523 7.94376156 45.16803768 4.8125 47.0625 C-1.75 51 -1.75 51 -4 51 C-6.08140796 70.47167137 -6.08140796 70.47167137 -1.36328125 88.73583984 C3.15116358 93.19546642 8.67692191 95.55924182 15 96 C19.66439067 95.10257567 22.38258568 92.97431844 26 90 C27.76234957 88.9690001 29.5541537 87.98627246 31.375 87.0625 C32.53128906 86.43021484 32.53128906 86.43021484 33.7109375 85.78515625 C36.71721102 84.75399417 37.9737258 84.98689384 41 86 C43.7793227 87.38231059 46.45033898 88.92638341 49.125 90.5 C50.54293658 91.32521354 51.96215883 92.14822293 53.3828125 92.96875 C54.00559082 93.33419922 54.62836914 93.69964844 55.27001953 94.07617188 C57.15481764 95.14490281 57.15481764 95.14490281 60 96 C60 96.99 60 97.98 60 99 C59.26885986 99.40839111 58.53771973 99.81678223 57.78442383 100.23754883 C55.05376892 101.76329278 52.32350786 103.28973854 49.59350586 104.81665039 C47.83802811 105.79822596 46.08210323 106.77900173 44.32617188 107.75976562 C43.21435547 108.38173828 42.10253906 109.00371094 40.95703125 109.64453125 C39.42526245 110.50075073 39.42526245 110.50075073 37.86254883 111.37426758 C35.97824709 112.4444224 34.11730734 113.55698049 32.28466797 114.71337891 C30 116 30 116 27.48828125 115.94140625 C24.41170711 114.77742765 22.57874876 113.18598764 20.1875 110.9375 C19.39730469 110.20402344 18.60710937 109.47054687 17.79296875 108.71484375 C17.20128906 108.14894531 16.60960937 107.58304687 16 107 C12.56735285 108.9537834 9.62427937 111.04937616 6.6875 113.6875 C5.99011719 114.31011719 5.29273438 114.93273437 4.57421875 115.57421875 C4.05472656 116.04472656 3.53523438 116.51523437 3 117 C-3.03523728 113.72591106 -9.05469543 110.43506486 -15 107 C-14.85616078 105.47897677 -14.70980986 103.95819103 -14.5625 102.4375 C-14.48128906 101.59058594 -14.40007812 100.74367188 -14.31640625 99.87109375 C-13.95278577 96.57157462 -13.46944747 93.28613229 -13 90 C-17.62 88.68 -22.24 87.36 -27 86 C-27 75.11 -27 64.22 -27 53 C-17 49 -17 49 -12 48 C-12.28875 46.94039062 -12.5775 45.88078125 -12.875 44.7890625 C-13.25013119 43.40107712 -13.62512401 42.01305433 -14 40.625 C-14.19078125 39.92632812 -14.3815625 39.22765625 -14.578125 38.5078125 C-16 33.2265625 -16 33.2265625 -16 31 C-14.04775792 29.71593601 -12.03659238 28.52058322 -10 27.375 C-8.88625 26.74335938 -7.7725 26.11171875 -6.625 25.4609375 C-5.75875 24.97882813 -4.8925 24.49671875 -4 24 C-4.38090059 20.55876021 -4.88272435 17.28427076 -6 14 C-8.97763043 11.73674754 -8.97763043 11.73674754 -12 10 C-13.125 7.0625 -13.125 7.0625 -13 4 C-9.35121571 -1.86411761 -6.27251837 -2.87490425 0 0 Z " fill="#222D40" transform="translate(236,163)"/>
<path d="M0 0 C0.66 0.33 1.32 0.66 2 1 C2.625 3.0625 2.625 3.0625 3 5 C3.66 4.34 4.32 3.68 5 3 C4.85075073 4.6857312 4.85075073 4.6857312 4.69848633 6.40551758 C2.14903644 26.28981114 2.14903644 26.28981114 6.80029297 44.94287109 C11.50340093 49.32100422 17.59724651 52.19218925 24 53 C26.94864216 52.54814383 29.16236352 51.47925885 31.71484375 49.96875 C32.40126953 49.57042969 33.08769531 49.17210937 33.79492188 48.76171875 C35.22040787 47.92228032 36.6448932 47.08114023 38.06835938 46.23828125 C38.75607422 45.83996094 39.44378906 45.44164062 40.15234375 45.03125 C40.77101318 44.66580078 41.38968262 44.30035156 42.02709961 43.92382812 C44.41014672 42.80794515 46.37440334 42.25098359 49 42 C51.2199707 42.80444336 51.2199707 42.80444336 53.42578125 44.08984375 C54.22177734 44.54423828 55.01777344 44.99863281 55.83789062 45.46679688 C56.65451172 45.95212891 57.47113281 46.43746094 58.3125 46.9375 C59.14845703 47.41896484 59.98441406 47.90042969 60.84570312 48.39648438 C62.90496914 49.58497505 64.95554173 50.78627147 67 52 C63.63503627 58.71969961 57.97236987 61.40115693 51.5625 64.9375 C50.00692383 65.83952148 50.00692383 65.83952148 48.41992188 66.75976562 C47.41638672 67.32244141 46.41285156 67.88511719 45.37890625 68.46484375 C44.4669751 68.976521 43.55504395 69.48819824 42.61547852 70.01538086 C39.54277137 71.17212761 38.08409026 71.02997957 35 70 C32.54296875 68.15234375 32.54296875 68.15234375 30.1875 65.9375 C29.39730469 65.20402344 28.60710937 64.47054687 27.79296875 63.71484375 C27.20128906 63.14894531 26.60960937 62.58304687 26 62 C22.56735285 63.9537834 19.62427937 66.04937616 16.6875 68.6875 C15.64142578 69.62142578 15.64142578 69.62142578 14.57421875 70.57421875 C14.05472656 71.04472656 13.53523438 71.51523437 13 72 C6.96476272 68.72591106 0.94530457 65.43506486 -5 62 C-4.4618629 56.30948637 -3.8599867 50.65134116 -3 45 C-4.32 44.67 -5.64 44.34 -7 44 C-7 43.01 -7 42.02 -7 41 C-7.94875 40.855625 -8.8975 40.71125 -9.875 40.5625 C-13 40 -13 40 -15 39 C-15 29.43 -15 19.86 -15 10 C-4 5 -4 5 -1 5 C-0.67 3.35 -0.34 1.7 0 0 Z " fill="#253146" transform="translate(226,208)"/>
<path d="M0 0 C5.83846154 3.42692308 5.83846154 3.42692308 6.65625 6.328125 C8.78198186 10.55487092 12.52783377 11.94180676 16.625 14.0625 C17.40746094 14.48337891 18.18992187 14.90425781 18.99609375 15.33789062 C21.31991722 16.58073154 23.65619067 17.79532867 26 19 C26.75168457 19.38905518 27.50336914 19.77811035 28.27783203 20.17895508 C31.89811219 22.02702112 35.01785448 23.26644688 39 24 C41.02237052 24.95394836 43.0282696 25.94535351 45 27 C45 27.99 45 28.98 45 30 C44.24976563 30.36351562 43.49953125 30.72703125 42.7265625 31.1015625 C36.62110268 34.10046594 30.85620372 37.22617408 25.25390625 41.09375 C23 42 23 42 20.71484375 41.4453125 C16.36064502 39.12724987 12.10955294 36.64384549 7.8828125 34.1015625 C4.13518038 31.92369327 1.48270854 30.38712969 -3 31 C-2.67 30.01 -2.34 29.02 -2 28 C-1.34 28 -0.68 28 0 28 C0.144375 27.4225 0.28875 26.845 0.4375 26.25 C0.77829426 24.88682296 1.14602036 23.52948997 1.5625 22.1875 C2.17700838 19.11495812 2.06006223 16.12323592 2 13 C-0.31 12.01 -2.62 11.02 -5 10 C-5.3125 7.25 -5.3125 7.25 -5 4 C-2.5 1.625 -2.5 1.625 0 0 Z " fill="#243044" transform="translate(251,174)"/>
<path d="M0 0 C1.98 0.66 3.96 1.32 6 2 C5.54775239 7.91492272 4.8417395 13.35199888 3 19 C3.825 19.226875 4.65 19.45375 5.5 19.6875 C9.15178366 21.05691887 11.91459879 22.8246638 15.0703125 25.07421875 C16.95425789 26.17768494 16.95425789 26.17768494 19.0546875 25.83203125 C21.36976238 24.84184862 22.48320637 24.01791719 24 22 C24.78798055 19.50556226 24.78798055 19.50556226 25.1875 16.8125 C25.34605469 15.91144531 25.50460938 15.01039063 25.66796875 14.08203125 C25.83232422 13.05142578 25.83232422 13.05142578 26 12 C28.31 12.33 30.62 12.66 33 13 C33.33 12.01 33.66 11.02 34 10 C35.50292969 8.84912109 35.50292969 8.84912109 37.421875 7.7734375 C38.11796875 7.3815625 38.8140625 6.9896875 39.53125 6.5859375 C40.2634375 6.18632812 40.995625 5.78671875 41.75 5.375 C42.46671875 4.96765625 43.1834375 4.5603125 43.921875 4.140625 C47.60105586 2.09813856 50.74435086 0.41525541 55 0 C57.2199707 0.80444336 57.2199707 0.80444336 59.42578125 2.08984375 C60.61977539 2.77143555 60.61977539 2.77143555 61.83789062 3.46679688 C62.65451172 3.95212891 63.47113281 4.43746094 64.3125 4.9375 C65.14845703 5.41896484 65.98441406 5.90042969 66.84570312 6.39648438 C68.90496914 7.58497505 70.95554173 8.78627147 73 10 C69.63503627 16.71969961 63.97236987 19.40115693 57.5625 22.9375 C56.52544922 23.53884766 55.48839844 24.14019531 54.41992188 24.75976562 C53.41638672 25.32244141 52.41285156 25.88511719 51.37890625 26.46484375 C50.4669751 26.976521 49.55504395 27.48819824 48.61547852 28.01538086 C45.54277137 29.17212761 44.08409026 29.02997957 41 28 C38.54296875 26.15234375 38.54296875 26.15234375 36.1875 23.9375 C35.39730469 23.20402344 34.60710937 22.47054688 33.79296875 21.71484375 C33.20128906 21.14894531 32.60960937 20.58304687 32 20 C28.56735285 21.9537834 25.62427937 24.04937616 22.6875 26.6875 C21.99011719 27.31011719 21.29273438 27.93273437 20.57421875 28.57421875 C20.05472656 29.04472656 19.53523438 29.51523437 19 30 C12.96476272 26.72591106 6.94530457 23.43506486 1 20 C1.5381371 14.30948637 2.1400133 8.65134116 3 3 C1.68 2.34 0.36 1.68 -1 1 C-0.67 0.67 -0.34 0.34 0 0 Z " fill="#253145" transform="translate(220,250)"/>
<path d="M0 0 C0.10806144 2.91765891 0.18732877 5.83131125 0.25 8.75 C0.30027344 9.9875 0.30027344 9.9875 0.3515625 11.25 C0.44929134 17.3091882 0.44929134 17.3091882 -1.6640625 20.55859375 C-4.54447946 22.33597478 -6.26168625 22.44395027 -9.625 22.3125 C-10.58664063 22.28800781 -11.54828125 22.26351563 -12.5390625 22.23828125 C-15 22 -15 22 -17 21 C-16.67 19.35 -16.34 17.7 -16 16 C-15.01 16 -14.02 16 -13 16 C-13.825 15.319375 -14.65 14.63875 -15.5 13.9375 C-18 11 -18 11 -18.6875 7.5 C-17.97652325 3.88048202 -17.13462242 2.02676107 -14.1328125 -0.19921875 C-9.6037391 -1.89969503 -4.66384581 -0.76221428 0 0 Z M-11 5 C-11.33 6.65 -11.66 8.3 -12 10 C-9.525 10.495 -9.525 10.495 -7 11 C-6.67 9.35 -6.34 7.7 -6 6 C-7.65 5.67 -9.3 5.34 -11 5 Z " fill="#1A1F2D" transform="translate(266,309)"/>
<path d="M0 0 C1.98 0 3.96 0 6 0 C6.33 1.98 6.66 3.96 7 6 C8.0828125 5.6596875 8.0828125 5.6596875 9.1875 5.3125 C12.81695175 4.90922758 14.13061469 5.82857328 17 8 C19.33909307 11.5086396 19.41291057 12.87089433 19 17 C17.53122736 20.59033313 16.60065881 21.71884055 13.0625 23.375 C9.99251913 24.00152671 8.88510571 23.90159554 6 23 C4.02 23 2.04 23 0 23 C0 15.41 0 7.82 0 0 Z M8 11 C7.34 11.66 6.68 12.32 6 13 C6.3185177 15.10820797 6.3185177 15.10820797 7 17 C8.94603274 17.59070014 8.94603274 17.59070014 11 18 C12.29633621 16.93354885 12.29633621 16.93354885 12.0625 14.4375 C12.041875 13.633125 12.02125 12.82875 12 12 C10.10820797 11.3185177 10.10820797 11.3185177 8 11 Z " fill="#0B111F" transform="translate(328,303)"/>
<path d="M0 0 C1.98 0 3.96 0 6 0 C6 7.59 6 15.18 6 23 C3.69 23 1.38 23 -1 23 C-1.680625 23.226875 -2.36125 23.45375 -3.0625 23.6875 C-6.32226133 24.21326796 -8.29812335 22.70335702 -11 21 C-13.17222379 18.35555365 -12.99893321 16.97012982 -12.875 13.5 C-11.91383374 9.65533494 -11.18159919 8.29782164 -8 6 C-5.55509884 5.30145681 -3.53137274 5 -1 5 C-0.67 3.35 -0.34 1.7 0 0 Z M-5 11 C-6.29633621 12.06645115 -6.29633621 12.06645115 -6.0625 14.5625 C-6.041875 15.366875 -6.02125 16.17125 -6 17 C-4.68 17.33 -3.36 17.66 -2 18 C-1.34 17.01 -0.68 16.02 0 15 C-0.66 13.68 -1.32 12.36 -2 11 C-2.99 11 -3.98 11 -5 11 Z " fill="#131424" transform="translate(211,303)"/>
<path d="M0 0 C3.0625 1.5 3.0625 1.5 5 3 C4.34 4.32 3.68 5.64 3 7 C0.60407609 7 -1.79203653 6.98446987 -4.1875 6.9375 C-6.90410595 6.6736984 -6.90410595 6.6736984 -8 8 C-8.07148199 9.35243917 -8.08399454 10.70834367 -8.0625 12.0625 C-8.041875 13.361875 -8.02125 14.66125 -8 16 C-4.53058454 15.54177532 -1.32604951 15.10868317 2 14 C2.99 14.99 3.98 15.98 5 17 C4 20 4 20 0.8125 21.75 C-3.58549762 23.47134743 -6.79091769 22.75739965 -11.1875 21.25 C-13.78683658 19.45735408 -14.73720611 17.90442596 -16 15 C-16.83389634 8.43306631 -16.83389634 8.43306631 -14.9453125 5.1875 C-10.48499087 -0.30212662 -6.73937892 -0.69717713 0 0 Z " fill="#1D2535" transform="translate(293,304)"/>
<path d="M0 0 C2.5625 1.5 2.5625 1.5 4 3 C3.6875 4.9375 3.6875 4.9375 3 7 C2.01 7.33 1.02 7.66 0 8 C-0.66 7.67 -1.32 7.34 -2 7 C-5.04173894 6.83329727 -5.04173894 6.83329727 -8 7 C-9.20561184 7.98267859 -9.20561184 7.98267859 -9.09765625 9.84765625 C-9.08605469 10.57855469 -9.07445312 11.30945313 -9.0625 12.0625 C-9.041875 13.361875 -9.02125 14.66125 -9 16 C-5.05272412 16.17942163 -2.4019487 16.09350689 1 14 C1.99 14.99 2.98 15.98 4 17 C3.01158836 19.6956681 2.30627815 20.81623311 -0.1875 22.3125 C-3.85741237 23.20958969 -6.3385661 22.91535847 -10 22 C-12.95492969 20.16137708 -14.60012663 18.67251431 -16.375 15.6875 C-17.22094728 12.04992671 -16.96685978 9.60960985 -16 6 C-11.06819366 0.18299765 -7.38783852 -0.78733625 0 0 Z " fill="#0A0F19" transform="translate(174,304)"/>
<path d="M0 0 C0.66 0.66 1.32 1.32 2 2 C-0.28874173 3.33858524 -2.58069656 4.67101014 -4.875 6 C-5.52597656 6.3815625 -6.17695313 6.763125 -6.84765625 7.15625 C-11.7734375 10 -11.7734375 10 -14 10 C-16.08140796 29.47167137 -16.08140796 29.47167137 -11.36328125 47.73583984 C-6.84883642 52.19546642 -1.32307809 54.55924182 5 55 C9.66439067 54.10257567 12.38258568 51.97431844 16 49 C17.76234957 47.9690001 19.5541537 46.98627246 21.375 46.0625 C22.53128906 45.43021484 22.53128906 45.43021484 23.7109375 44.78515625 C26.71721102 43.75399417 27.9737258 43.98689384 31 45 C33.7793227 46.38231059 36.45033898 47.92638341 39.125 49.5 C40.54293658 50.32521354 41.96215883 51.14822293 43.3828125 51.96875 C44.31697998 52.51692383 44.31697998 52.51692383 45.27001953 53.07617188 C47.15481764 54.14490281 47.15481764 54.14490281 50 55 C50 55.99 50 56.98 50 58 C48.02 58.66 46.04 59.32 44 60 C44.33 58.68 44.66 57.36 45 56 C42.44696285 54.4609776 39.88460065 52.94404807 37.3125 51.4375 C36.59126953 50.99986328 35.87003906 50.56222656 35.12695312 50.11132812 C31.06424482 47.72244277 31.06424482 47.72244277 26.51171875 46.90234375 C21.8028648 48.96017884 17.54964084 51.80459234 13.23828125 54.58203125 C7.71039616 57.99660098 7.71039616 57.99660098 4.55078125 58.01171875 C3.70902344 57.67785156 2.86726563 57.34398437 2 57 C1.3179248 56.81759766 0.63584961 56.63519531 -0.06689453 56.44726562 C-6.55721598 54.56102855 -12.31745762 51.85205376 -16 46 C-17.79579294 40.06512808 -17.72396131 33.83391063 -17.6875 27.6875 C-17.69447906 26.87147308 -17.70145813 26.05544617 -17.70864868 25.21469116 C-17.69594208 12.01781344 -17.69594208 12.01781344 -14.02026367 7.64453125 C-11.7220191 6.09265432 -9.56852376 5.02757265 -7 4 C-5.63582763 3.22570212 -4.2804685 2.43551778 -2.9375 1.625 C-1.968125 1.08875 -0.99875 0.5525 0 0 Z " fill="#080E21" transform="translate(246,204)"/>
<path d="M0 0 C2.31 0 4.62 0 7 0 C6.98839844 0.62648438 6.97679687 1.25296875 6.96484375 1.8984375 C6.95582031 2.71570313 6.94679688 3.53296875 6.9375 4.375 C6.92589844 5.18710937 6.91429687 5.99921875 6.90234375 6.8359375 C6.85533666 9.04937142 6.85533666 9.04937142 8 11 C8.66 11 9.32 11 10 11 C10.33 7.37 10.66 3.74 11 0 C13.31 0 15.62 0 18 0 C18.02684679 2.64590014 18.04676357 5.29153096 18.0625 7.9375 C18.07087891 8.69224609 18.07925781 9.44699219 18.08789062 10.22460938 C18.09652441 12.14994313 18.05224333 14.07535581 18 16 C17.67 16.33 17.34 16.66 17 17 C14.66666667 17 12.33333333 17 10 17 C8.948125 17.3403125 8.948125 17.3403125 7.875 17.6875 C6 18 6 18 3.3125 16.6875 C1 15 1 15 0 13 C-0.07092842 10.7927077 -0.08415025 8.58332548 -0.0625 6.375 C-0.05347656 5.18648438 -0.04445313 3.99796875 -0.03515625 2.7734375 C-0.02355469 1.85820312 -0.01195312 0.94296875 0 0 Z " fill="#151C2C" transform="translate(308,309)"/>
<path d="M0 0 C2.4375 1.5625 2.4375 1.5625 4 4 C4.71672773 9.01709408 4.85680874 10.84942826 1.8125 14.9375 C-1.08398851 17.06159157 -2.43135013 18 -6 18 C-10.01615948 16.4738594 -13.12393343 14.97284686 -15 11 C-14.92875823 7.01046061 -14.61640078 4.78077432 -12.125 1.625 C-8.00128384 -1.52843 -4.8998116 -1.11750089 0 0 Z M-7 5 C-8.29633621 6.06645115 -8.29633621 6.06645115 -8.0625 8.5625 C-8.041875 9.366875 -8.02125 10.17125 -8 11 C-4.95086772 12.01111093 -4.95086772 12.01111093 -2 11 C-2 9.35 -2 7.7 -2 6 C-3.65614657 5.61781233 -5.32457024 5.28604898 -7 5 Z " fill="#1E2635" transform="translate(193,309)"/>
<path d="M0 0 C1.98 0.66 3.96 1.32 6 2 C5.54775239 7.91492272 4.8417395 13.35199888 3 19 C3.825 19.226875 4.65 19.45375 5.5 19.6875 C9.15178366 21.05691887 11.91459879 22.8246638 15.0703125 25.07421875 C16.93134491 26.15117688 16.93134491 26.15117688 18.9140625 25.9296875 C21.87976253 24.6078961 23.88414712 22.64770466 26.25 20.4375 C27.58804688 19.19806641 27.58804688 19.19806641 28.953125 17.93359375 C29.62859375 17.29550781 30.3040625 16.65742188 31 16 C35.8695442 18.52841718 38.65072161 20.57416784 42 25 C44.94127062 26.35362996 44.94127062 26.35362996 47.4519043 24.92016602 C48.39976807 24.37030029 49.34763184 23.82043457 50.32421875 23.25390625 C51.35224609 22.66416016 52.38027344 22.07441406 53.43945312 21.46679688 C55.04723633 20.52416992 55.04723633 20.52416992 56.6875 19.5625 C57.77095703 18.93794922 58.85441406 18.31339844 59.97070312 17.66992188 C62.65251479 16.12226845 65.32849561 14.56535683 68 13 C68.99 13.99 68.99 13.99 70 15 C67.31294159 16.58408362 64.62527171 18.167127 61.9375 19.75 C61.18533203 20.1934375 60.43316406 20.636875 59.65820312 21.09375 C58.15875054 21.97654459 56.65663663 22.85483491 55.15185547 23.72851562 C53.77046616 24.54474838 52.40308721 25.3854531 51.05517578 26.25585938 C48.40455734 27.9256987 46.53649401 28.99920519 43.36328125 29.00390625 C40.41952865 27.75341961 38.51458656 26.12565602 36.1875 23.9375 C35.39730469 23.20402344 34.60710937 22.47054688 33.79296875 21.71484375 C33.20128906 21.14894531 32.60960937 20.58304687 32 20 C28.56735285 21.9537834 25.62427937 24.04937616 22.6875 26.6875 C21.99011719 27.31011719 21.29273438 27.93273437 20.57421875 28.57421875 C20.05472656 29.04472656 19.53523438 29.51523437 19 30 C12.96476272 26.72591106 6.94530457 23.43506486 1 20 C1.5381371 14.30948637 2.1400133 8.65134116 3 3 C1.68 2.34 0.36 1.68 -1 1 C-0.67 0.67 -0.34 0.34 0 0 Z " fill="#111726" transform="translate(220,250)"/>
<path d="M0 0 C2.12753734 2.93515775 1.6643835 5.53000365 1.56640625 9.08984375 C1.53933594 10.36214844 1.51226562 11.63445312 1.484375 12.9453125 C1.44957031 13.92113281 1.41476563 14.89695312 1.37890625 15.90234375 C-0.60109375 15.90234375 -2.58109375 15.90234375 -4.62109375 15.90234375 C-4.95109375 12.27234375 -5.28109375 8.64234375 -5.62109375 4.90234375 C-6.61109375 4.90234375 -7.60109375 4.90234375 -8.62109375 4.90234375 C-8.95109375 8.53234375 -9.28109375 12.16234375 -9.62109375 15.90234375 C-11.60109375 15.90234375 -13.58109375 15.90234375 -15.62109375 15.90234375 C-15.62109375 10.29234375 -15.62109375 4.68234375 -15.62109375 -1.09765625 C-3.93870744 -2.66693202 -3.93870744 -2.66693202 0 0 Z " fill="#0A0E1B" transform="translate(244.62109375,310.09765625)"/>
<path d="M0 0 C2.375 1.5625 2.375 1.5625 4 4 C4.56783945 7.97487617 4.62340519 10.06489221 2.375 13.4375 C-0.71685231 15.47161336 -2.36367425 15.60605429 -6 15 C-8.65359262 13.06359458 -9.7609947 11.62141377 -10.9375 8.5625 C-11.01929321 5.20897857 -9.98804097 3.65072129 -8 1 C-5.15916359 -0.42041821 -3.14522722 -0.31452272 0 0 Z " fill="#253043" transform="translate(215,253)"/>
<path d="M0 0 C2.5 2.125 2.5 2.125 4 5 C4 8.60959513 3.37164354 10.44253468 1.375 13.4375 C-1 15 -1 15 -4.5625 15 C-8 14 -8 14 -10 12.375 C-11.45635054 8.91616747 -10.91305869 6.58701629 -10 3 C-7.67367704 -1.0064451 -4.25981392 -0.59786862 0 0 Z " fill="#141A28" transform="translate(215,174)"/>
<path d="M0 0 C2.52652208 1.7144257 2.98057694 2.94043594 3.9375 5.875 C4 9 4 9 2.5 11.875 C0 14 0 14 -3.5 14.5625 C-7 14 -7 14 -9.4375 12.375 C-11.47161336 9.28314769 -11.60605429 7.63632575 -11 4 C-7.52388135 -0.287213 -5.34245003 -1.56364391 0 0 Z " fill="#20293C" transform="translate(255,276)"/>
<path d="M0 0 C2.375 1.625 2.375 1.625 4 4 C4.60605429 7.63632575 4.47161336 9.28314769 2.4375 12.375 C-0.8994213 14.5996142 -3.06905293 14.50030235 -7 14 C-9.42194927 12.46609879 -9.88729401 11.30591626 -10.875 8.625 C-11.0376843 5.20862965 -10.02489572 3.69986096 -8 1 C-5.15916359 -0.42041821 -3.14522722 -0.31452272 0 0 Z " fill="#243044" transform="translate(215,197)"/>
<path d="M0 0 C1.134375 0.4125 2.26875 0.825 3.4375 1.25 C3.90542969 2.27738281 4.37335938 3.30476562 4.85546875 4.36328125 C8.00383353 10.27774729 14.48636621 12.6910754 20.1875 15.6875 C21.37461865 16.32837555 22.56082724 16.97093985 23.74609375 17.61523438 C26.63472668 19.17697494 29.53145081 20.72098572 32.4375 22.25 C32.4375 23.24 32.4375 24.23 32.4375 25.25 C5.61787221 12.29447089 5.61787221 12.29447089 2.4375 4.25 C0.38656855 2.84533047 0.38656855 2.84533047 -1.5625 2.25 C-3.68172127 3.33743288 -3.68172127 3.33743288 -5.5625 5.25 C-5.89647787 8.37586875 -5.89647787 8.37586875 -5.5625 11.25 C-2.0975 12.735 -2.0975 12.735 1.4375 14.25 C1.80673077 20.77307692 1.80673077 20.77307692 -0.0625 23.1875 C-0.5575 23.538125 -1.0525 23.88875 -1.5625 24.25 C-2.5525 23.26 -3.5425 22.27 -4.5625 21.25 C-3.9025 20.92 -3.2425 20.59 -2.5625 20.25 C-1.9025 20.58 -1.2425 20.91 -0.5625 21.25 C-0.5625 19.27 -0.5625 17.29 -0.5625 15.25 C-1.325625 15.146875 -2.08875 15.04375 -2.875 14.9375 C-5.82894989 14.1818384 -6.89976664 13.78785617 -8.5625 11.25 C-9.26791917 7.1938398 -8.88370577 5.70747488 -6.5 2.3125 C-3.5625 0.25 -3.5625 0.25 0 0 Z " fill="#0C101F" transform="translate(252.5625,172.75)"/>
<path d="M0 0 C1.98 0 3.96 0 6 0 C8.11381248 7.48222514 6.8896184 15.3905855 6 23 C4.02 23 2.04 23 0 23 C0 15.41 0 7.82 0 0 Z " fill="#0F1524" transform="translate(299,303)"/>
<path d="M0 0 C1.125 3.75 1.125 3.75 0 6 C-4.29 7.65 -8.58 9.3 -13 11 C-13.33 20.57 -13.66 30.14 -14 40 C-11.36 40.66 -8.72 41.32 -6 42 C-6 42.66 -6 43.32 -6 44 C-9.3 43.34 -12.6 42.68 -16 42 C-16 31.11 -16 20.22 -16 9 C-6 5 -6 5 -1 4 C-0.67 2.68 -0.34 1.36 0 0 Z " fill="#060A1D" transform="translate(225,207)"/>
<path d="M0 0 C2.4375 1.5625 2.4375 1.5625 4 4 C4.71672773 9.01709408 4.85680874 10.84942826 1.8125 14.9375 C-1.08398851 17.06159157 -2.43135013 18 -6 18 C-10.01615948 16.4738594 -13.12393343 14.97284686 -15 11 C-14.92875823 7.01046061 -14.61640078 4.78077432 -12.125 1.625 C-8.00128384 -1.52843 -4.8998116 -1.11750089 0 0 Z M-9 1 C-11.46704919 3.56984291 -11.99490804 4.95853694 -12.4375 8.5625 C-12.31792239 11.97557944 -12.31792239 11.97557944 -10.375 13.9375 C-7.29442492 15.31565201 -5.34262452 15.48746608 -2 15 C0.5 13.5 0.5 13.5 2 11 C2.4452286 7.88339978 2.53397053 5.96782158 1 3.1875 C-2.18068454 1.29896856 -5.33469879 1.30043453 -9 1 Z " fill="#0B0F1B" transform="translate(193,309)"/>
<path d="M0 0 C2.4375 0.75 2.4375 0.75 4.4375 2.75 C3.89402174 8.83695652 3.89402174 8.83695652 2.4375 11.75 C2.71991883 14.0900417 3.05000787 16.42504723 3.4375 18.75 C1.4375 15.75 1.4375 15.75 1.4375 12.75 C0.5403125 12.5953125 0.5403125 12.5953125 -0.375 12.4375 C-3.02354026 11.60510163 -4.0155279 11.07045815 -5.5625 8.75 C-5.9375 5.1875 -5.9375 5.1875 -5.5625 1.75 C-2.5625 -0.25 -2.5625 -0.25 0 0 Z " fill="#263144" transform="translate(231.5625,163.25)"/>
<path d="M0 0 C0 4.29 0 8.58 0 13 C-1.32 12.34 -2.64 11.68 -4 11 C-3.67 8.36 -3.34 5.72 -3 3 C-4.98 3.33 -6.96 3.66 -9 4 C-8.67 5.98 -8.34 7.96 -8 10 C-7.01 10.33 -6.02 10.66 -5 11 C-5 11.66 -5 12.32 -5 13 C-11.33272059 11.56617647 -11.33272059 11.56617647 -14.0625 9.25 C-15 7 -15 7 -14.1875 3.75 C-13.795625 2.8425 -13.40375 1.935 -13 1 C-11.39796533 0.63631108 -9.79325797 0.28438048 -8.1875 -0.0625 C-7.29417969 -0.25972656 -6.40085937 -0.45695312 -5.48046875 -0.66015625 C-3 -1 -3 -1 0 0 Z " fill="#101525" transform="translate(264,311)"/>
<path d="M0 0 C-0.99 0.495 -0.99 0.495 -2 1 C-2 1.66 -2 2.32 -2 3 C-2.99 3.495 -2.99 3.495 -4 4 C-4 5.65 -4 7.3 -4 9 C0.455 8.505 0.455 8.505 5 8 C5.33 9.65 5.66 11.3 6 13 C4.08404032 13.08133791 2.16708068 13.13934367 0.25 13.1875 C-0.81734375 13.22230469 -1.8846875 13.25710938 -2.984375 13.29296875 C-6.33674481 12.96728515 -7.63171043 12.34599978 -10 10 C-11.07992835 6.67714354 -11.1196437 5.35893109 -10 2 C-6.3558226 -0.4294516 -4.28758728 -0.16179575 0 0 Z " fill="#151D31" transform="translate(210,311)"/>
<path d="M0 0 C1.98 0 3.96 0 6 0 C6 5.61 6 11.22 6 17 C4.02 17 2.04 17 0 17 C0 11.39 0 5.78 0 0 Z " fill="#090C15" transform="translate(220,309)"/>
<path d="M0 0 C1.98 0 3.96 0 6 0 C5.67 2.31 5.34 4.62 5 7 C4.67 7 4.34 7 4 7 C4 5.35 4 3.7 4 2 C2.3501993 5.29960141 2.61741639 8.99127884 2.4375 12.625 C2.39431641 13.42679687 2.35113281 14.22859375 2.30664062 15.0546875 C2.20048543 17.0362511 2.09973145 19.01810271 2 21 C2.92554688 20.83242188 3.85109375 20.66484375 4.8046875 20.4921875 C8 20 8 20 11.125 20.125 C14.42986806 19.98131008 15.60935732 19.20674709 18 17 C17.375 19.375 17.375 19.375 16 22 C12.21149065 23.81189578 9.95066617 24.23458318 6 23 C4.02 23 2.04 23 0 23 C0 15.41 0 7.82 0 0 Z " fill="#080C19" transform="translate(328,303)"/>
<path d="M0 0 C3.0625 1.5 3.0625 1.5 5 3 C4.34 4.32 3.68 5.64 3 7 C0.60407609 7 -1.79203653 6.98446987 -4.1875 6.9375 C-6.90410595 6.6736984 -6.90410595 6.6736984 -8 8 C-8.07148199 9.35243917 -8.08399454 10.70834367 -8.0625 12.0625 C-8.041875 13.361875 -8.02125 14.66125 -8 16 C-8.99 15.67 -9.98 15.34 -11 15 C-11.625 12.1875 -11.625 12.1875 -12 9 C-11.34 8.01 -10.68 7.02 -10 6 C-9.34 6 -8.68 6 -8 6 C-8 5.34 -8 4.68 -8 4 C-2.125 3 -2.125 3 -1 3 C-4.3 3.33 -7.6 3.66 -11 4 C-11 3.01 -11 2.02 -11 1 C-7.56143022 -0.71928489 -3.76751104 -0.38974252 0 0 Z " fill="#0F1325" transform="translate(293,304)"/>
<path d="M0 0 C1.5 1.75 1.5 1.75 2 4 C1.125 6.75 1.125 6.75 0 9 C-3.375 9.125 -3.375 9.125 -7 9 C-7.66 8.34 -8.32 7.68 -9 7 C-8.75 3.4375 -8.75 3.4375 -8 0 C-5.04063954 -1.47968023 -3.13239866 -0.84835797 0 0 Z " fill="#263246" transform="translate(215,177)"/>
<path d="M0 0 C2 2.0625 2 2.0625 3 5 C2.66711046 8.10696901 1.87786769 11.00775585 1 14 C0.66183018 15.33211488 0.3269193 16.66507953 0 18 C-1.74959319 15.37561021 -2.62068453 14.03452373 -3 11 C-2.34 10.01 -1.68 9.02 -1 8 C-0.66656449 5.45792029 -0.66656449 5.45792029 -1 3 C-1.66 2.34 -2.32 1.68 -3 1 C-6.09926819 1.32198966 -6.09926819 1.32198966 -9 2 C-9.35606813 6.96551325 -9.35606813 6.96551325 -7.5 11.4375 C-7.005 11.953125 -6.51 12.46875 -6 13 C-9.65316671 11.75023244 -10.78065836 11.32901247 -13 8 C-12.80242198 4.83875171 -12.55887766 2.73670237 -10.625 0.1875 C-6.70785936 -2.67502585 -4.18234497 -1.91690811 0 0 Z " fill="#0A1020" transform="translate(236,163)"/>
<path d="M0 0 C2.375 1.5625 2.375 1.5625 4 4 C4.56783945 7.97487617 4.62340519 10.06489221 2.375 13.4375 C-0.71685231 15.47161336 -2.36367425 15.60605429 -6 15 C-8.65359262 13.06359458 -9.7609947 11.62141377 -10.9375 8.5625 C-11.01929321 5.20897857 -9.98804097 3.65072129 -8 1 C-5.15916359 -0.42041821 -3.14522722 -0.31452272 0 0 Z M-7.25 3.1875 C-9.21279493 4.89393194 -9.21279493 4.89393194 -9.5 7.5 C-9.19040322 10.08770363 -9.19040322 10.08770363 -7.375 11.9375 C-4.93671531 13.31094934 -4.93671531 13.31094934 -1.875 12.3125 C1.05637147 11.17668888 1.05637147 11.17668888 3 9 C2.76306451 6.5516666 2.16353221 5.21804295 0.6875 3.25 C-2.08758892 1.19437857 -4.32845418 1.64557304 -7.25 3.1875 Z " fill="#181E2D" transform="translate(215,253)"/>
<path d="M0 0 C0.66 0.33 1.32 0.66 2 1 C1.67 1.99 1.34 2.98 1 4 C0.67 3.34 0.34 2.68 0 2 C-3.41756151 1.68931259 -5.40106977 1.6374896 -8.375 3.4375 C-10.76173366 7.20119538 -10.33387931 10.65956893 -10 15 C-7.36 15.66 -4.72 16.32 -2 17 C-2 16.34 -2 15.68 -2 15 C-0.35 15 1.3 15 3 15 C2 16.5 2 16.5 0 18 C-4.53561093 18.5120851 -6.87736214 18.57326189 -10.9375 16.5 C-13.33399335 13.59515958 -14.00732046 11.67983928 -14.27734375 7.96875 C-13.79312151 4.53145409 -11.63660062 3.02343769 -9 1 C-6.01405576 -0.49297212 -3.29146376 -0.11755228 0 0 Z " fill="#212737" transform="translate(173,306)"/>
<path d="M0 0 C1.98 0 3.96 0 6 0 C6 0.66 6 1.32 6 2 C4.68 2 3.36 2 2 2 C2.020625 2.928125 2.04125 3.85625 2.0625 4.8125 C2 8 2 8 1 11 C1.39397335 13.63804589 1.39397335 13.63804589 2 16 C1.01 16 0.02 16 -1 16 C-1.66 13.69 -2.32 11.38 -3 9 C-6.04386724 8.91773332 -8.07175348 9.02391783 -11 10 C-10 7 -10 7 -8.25 5.75 C-5.47275102 4.82425034 -3.78428335 5.22658796 -1 6 C-0.67 4.02 -0.34 2.04 0 0 Z " fill="#070B19" transform="translate(211,303)"/>
<path d="M0 0 C0.53294678 0.36496582 1.06589355 0.72993164 1.61499023 1.10595703 C7.29636409 4.95092101 13.10651828 8.47422223 19.0625 11.875 C20.3609082 12.62136719 20.3609082 12.62136719 21.68554688 13.3828125 C23.78879769 14.59131021 25.89360751 15.79698944 28 17 C27.34 17.66 26.68 18.32 26 19 C22.80837301 17.27837361 19.62250766 15.54633715 16.4375 13.8125 C15.54224609 13.32974609 14.64699219 12.84699219 13.72460938 12.34960938 C8.54597256 9.5231739 3.71994255 6.54157555 -1 3 C-0.67 2.01 -0.34 1.02 0 0 Z " fill="#161E2C" transform="translate(258,179)"/>
<path d="M0 0 C2.31 0 4.62 0 7 0 C7.02684679 2.64590014 7.04676357 5.29153096 7.0625 7.9375 C7.07087891 8.69224609 7.07925781 9.44699219 7.08789062 10.22460938 C7.09652441 12.14994313 7.05224333 14.07535581 7 16 C6 17 6 17 2.9375 17.0625 C1.968125 17.041875 0.99875 17.02125 0 17 C1.32 16.34 2.64 15.68 4 15 C4 10.71 4 6.42 4 2 C3.01 2 2.02 2 1 2 C1 4.64 1 7.28 1 10 C0.67 10 0.34 10 0 10 C0 6.7 0 3.4 0 0 Z " fill="#070811" transform="translate(319,309)"/>
<path d="M0 0 C3.48670834 1.1094072 6.77484237 2.26337666 10 4 C10 4.99 10 5.98 10 7 C9.24976563 7.36351562 8.49953125 7.72703125 7.7265625 8.1015625 C1.62110268 11.10046594 -4.14379628 14.22617408 -9.74609375 18.09375 C-12 19 -12 19 -14.78515625 18.15625 C-15.51605469 17.7746875 -16.24695313 17.393125 -17 17 C-16.34 16.34 -15.68 15.68 -15 15 C-14.01 15.33 -13.02 15.66 -12 16 C-8.9230734 14.77507738 -6.14810649 12.9527596 -3.3125 11.25 C-2.51521484 10.79367188 -1.71792969 10.33734375 -0.89648438 9.8671875 C-0.14302734 9.42117187 0.61042969 8.97515625 1.38671875 8.515625 C2.07983154 8.10602539 2.77294434 7.69642578 3.48706055 7.27441406 C3.98633057 6.85385742 4.48560059 6.43330078 5 6 C5 5.01 5 4.02 5 3 C2.525 2.505 2.525 2.505 0 2 C0 1.34 0 0.68 0 0 Z " fill="#080E1A" transform="translate(286,197)"/>
<path d="M0 0 C0 0.66 0 1.32 0 2 C-0.91523438 2.06058594 -1.83046875 2.12117188 -2.7734375 2.18359375 C-3.96195312 2.26738281 -5.15046875 2.35117187 -6.375 2.4375 C-7.55835938 2.51871094 -8.74171875 2.59992188 -9.9609375 2.68359375 C-12.91518901 2.81084936 -12.91518901 2.81084936 -15 4 C-16.01453953 6.32024404 -16.01453953 6.32024404 -16 9 C-13.52462743 12.33223231 -10.89075454 13.70308182 -7 15 C-7 15.33 -7 15.66 -7 16 C-10.9760803 16.46233492 -12.56851204 16.30954571 -15.875 13.9375 C-18 11 -18 11 -18.6875 7.5 C-17.97652325 3.88048202 -17.13462242 2.02676107 -14.1328125 -0.19921875 C-9.6037391 -1.89969503 -4.66384581 -0.76221428 0 0 Z " fill="#090C16" transform="translate(266,309)"/>
<path d="M0 0 C1.4540625 0.433125 1.4540625 0.433125 2.9375 0.875 C3.72125 1.060625 4.505 1.24625 5.3125 1.4375 C5.84875 1.581875 6.385 1.72625 6.9375 1.875 C6.6075 2.865 6.2775 3.855 5.9375 4.875 C5.22722656 4.79121094 4.51695312 4.70742188 3.78515625 4.62109375 C2.40650391 4.46833984 2.40650391 4.46833984 1 4.3125 C0.08347656 4.20808594 -0.83304688 4.10367187 -1.77734375 3.99609375 C-2.90849609 3.93615234 -2.90849609 3.93615234 -4.0625 3.875 C-5.26811184 4.85767859 -5.26811184 4.85767859 -5.16015625 6.72265625 C-5.14855469 7.45355469 -5.13695312 8.18445313 -5.125 8.9375 C-5.104375 10.236875 -5.08375 11.53625 -5.0625 12.875 C-2.0925 13.37 -2.0925 13.37 0.9375 13.875 C0.9375 14.535 0.9375 15.195 0.9375 15.875 C-2.77849191 16.07586443 -3.83458445 16.0269437 -7.0625 13.875 C-8.09703215 10.88308599 -8.32800131 8.02308693 -8.0625 4.875 C-5.62261306 1.1782016 -4.51106988 -0.1841253 0 0 Z " fill="#0E1323" transform="translate(170.0625,307.125)"/>
<path d="M0 0 C2.375 1.625 2.375 1.625 4 4 C4.5 7 4.5 7 4 10 C2.25 12.4375 2.25 12.4375 0 14 C-2.25 13.75 -2.25 13.75 -4 13 C-2.7625 12.443125 -2.7625 12.443125 -1.5 11.875 C1.32981686 10.20372275 1.32981686 10.20372275 1.5 6.9375 C1.335 5.968125 1.17 4.99875 1 4 C-1.84826598 1.63307034 -1.84826598 1.63307034 -5.1875 2.375 C-6.115625 2.58125 -7.04375 2.7875 -8 3 C-8.4361141 7.21900957 -8.4361141 7.21900957 -6.5 10.75 C-6.005 11.1625 -5.51 11.575 -5 12 C-5 12.66 -5 13.32 -5 14 C-8.13263778 12.95578741 -8.90385789 12.18810414 -10.4375 9.1875 C-11 6 -11 6 -9.75 3.1875 C-6.86310697 -0.42111628 -4.49476808 -0.44947681 0 0 Z " fill="#121825" transform="translate(215,197)"/>
<path d="M0 0 C0.66 0 1.32 0 2 0 C4.60691842 2.60691842 4.70416963 4.37607794 5 8 C4.01 9.485 4.01 9.485 3 11 C3.31506627 14.14221967 3.31506627 14.14221967 4 17 C2.02 17.99 2.02 17.99 0 19 C0 12.73 0 6.46 0 0 Z " fill="#1A2234" transform="translate(330,305)"/>
<path d="M0 0 C0.66 0.33 1.32 0.66 2 1 C1.67 6.94 1.34 12.88 1 19 C-0.32 19 -1.64 19 -3 19 C-3 14.38 -3 9.76 -3 5 C-2.34 5.66 -1.68 6.32 -1 7 C-0.67 4.69 -0.34 2.38 0 0 Z " fill="#192332" transform="translate(302,305)"/>
<path d="M0 0 C0 4.29 0 8.58 0 13 C-1.32 12.34 -2.64 11.68 -4 11 C-3.67 8.36 -3.34 5.72 -3 3 C-6.57257469 1.76333953 -9.35526801 2.10906551 -13 3 C-13.33 3.66 -13.66 4.32 -14 5 C-13.67 3.68 -13.34 2.36 -13 1 C-11.39796533 0.63631108 -9.79325797 0.28438048 -8.1875 -0.0625 C-7.29417969 -0.25972656 -6.40085937 -0.45695312 -5.48046875 -0.66015625 C-3 -1 -3 -1 0 0 Z " fill="#1E2637" transform="translate(264,311)"/>
<path d="M0 0 C0.97608217 2.92824652 1.08226668 4.95613276 1 8 C4.66240103 10.34393666 7.74063226 10.07472575 12 10 C13.67557379 10.28520405 15.34817245 10.59955696 17 11 C17 11.66 17 12.32 17 13 C12.13817902 13.79749237 8.2318489 14.41794873 3.5 12.8125 C-0.22137405 10.11450382 -0.22137405 10.11450382 -1 7 C-0.625 3.25 -0.625 3.25 0 0 Z " fill="#070A15" transform="translate(199,313)"/>
<path d="M0 0 C2.71287358 0.20868258 4.49148156 0.65493391 6.75 2.1875 C8.58491853 4.84813186 8.93550016 6.77500781 9 10 C7.4375 12.875 7.4375 12.875 5 15 C1.75 15.3125 1.75 15.3125 -1 15 C-1 14.34 -1 13.68 -1 13 C1.31 12.34 3.62 11.68 6 11 C6 9.02 6 7.04 6 5 C3.36 4.01 0.72 3.02 -2 2 C-1.34 1.34 -0.68 0.68 0 0 Z " fill="#161B29" transform="translate(250,275)"/>
<path d="M0 0 C2.91517292 1.07401108 4.77810176 1.77810176 7 4 C7.1953125 7.2578125 7.1953125 7.2578125 7.125 11.125 C7.10695312 12.40632813 7.08890625 13.68765625 7.0703125 15.0078125 C7.04710937 15.99523437 7.02390625 16.98265625 7 18 C5.35 18 3.7 18 2 18 C2 17.34 2 16.68 2 16 C2.99 16 3.98 16 5 16 C5.05395478 14.37536158 5.09277195 12.75021459 5.125 11.125 C5.15980469 9.76761719 5.15980469 9.76761719 5.1953125 8.3828125 C5.24324836 5.81193006 5.24324836 5.81193006 3 4 C0.42938689 3.35232207 0.42938689 3.35232207 -2 3 C-1.34 2.67 -0.68 2.34 0 2 C0 1.34 0 0.68 0 0 Z " fill="#060811" transform="translate(239,308)"/>
<path d="M0 0 C2.475 0.99 2.475 0.99 5 2 C4.67 5.63 4.34 9.26 4 13 C3.01 13 2.02 13 1 13 C0.67 13.66 0.34 14.32 0 15 C-0.02688151 13.35425434 -0.04634123 11.70838587 -0.0625 10.0625 C-0.07410156 9.14597656 -0.08570313 8.22945313 -0.09765625 7.28515625 C0 5 0 5 1 4 C0.59070014 1.94603274 0.59070014 1.94603274 0 0 Z " fill="#1B2232" transform="translate(240,311)"/>
<path d="M0 0 C0.66 0 1.32 0 2 0 C1.67 4.95 1.34 9.9 1 15 C0.01 15 -0.98 15 -2 15 C-2 10.71 -2 6.42 -2 2 C-1.34 2 -0.68 2 0 2 C0 1.34 0 0.68 0 0 Z " fill="#1A2532" transform="translate(224,309)"/>
<path d="M0 0 C2.75 -0.3125 2.75 -0.3125 6 0 C8.4375 2.1875 8.4375 2.1875 10 5 C9.9303003 7.92738742 9.40278716 9.41595862 7.75 11.8125 C5.41988723 13.39364795 3.75498245 13.22337696 1 13 C1.804375 12.236875 2.60875 11.47375 3.4375 10.6875 C6.16799024 8.20569102 6.16799024 8.20569102 7 5 C6.34 4.67 5.68 4.34 5 4 C4.67 3.34 4.34 2.68 4 2 C1.98330173 0.86649466 1.98330173 0.86649466 0 0 Z " fill="#202737" transform="translate(336,311)"/>
<path d="M0 0 C-0.99 0.495 -0.99 0.495 -2 1 C-2.33 1.66 -2.66 2.32 -3 3 C-3 2.34 -3 1.68 -3 1 C-4.32 1.99 -5.64 2.98 -7 4 C-6.34414811 7.60992379 -6.34414811 7.60992379 -5 11 C-4.01 11.66 -3.02 12.32 -2 13 C-5.37462715 12.45276317 -7.08235 11.9451 -10 10 C-11.01557588 6.6993784 -11.1092904 5.32787119 -10 2 C-6.3558226 -0.4294516 -4.28758728 -0.16179575 0 0 Z " fill="#1B2231" transform="translate(210,311)"/>
<path d="M0 0 C0.66 0.66 1.32 1.32 2 2 C1.9765625 4.6015625 1.9765625 4.6015625 1.625 7.625 C1.51414063 8.62789063 1.40328125 9.63078125 1.2890625 10.6640625 C1.19367188 11.43492187 1.09828125 12.20578125 1 13 C-0.98 13 -2.96 13 -5 13 C-4.67 10.69 -4.34 8.38 -4 6 C-3.67 6 -3.34 6 -3 6 C-3 7.65 -3 9.3 -3 11 C-2.34 11 -1.68 11 -1 11 C-1.01160156 10.28972656 -1.02320313 9.57945312 -1.03515625 8.84765625 C-1.04869141 7.46900391 -1.04869141 7.46900391 -1.0625 6.0625 C-1.07410156 5.14597656 -1.08570313 4.22945313 -1.09765625 3.28515625 C-1 1 -1 1 0 0 Z " fill="#070A19" transform="translate(234,313)"/>
<path d="M0 0 C1.125 3.75 1.125 3.75 0 6 C-2.34937742 6.9583369 -4.66218055 7.81785446 -7.0625 8.625 C-7.72572266 8.85445312 -8.38894531 9.08390625 -9.07226562 9.3203125 C-10.71259669 9.88675776 -12.35602157 10.44422923 -14 11 C-14 10.01 -14 9.02 -14 8 C-12.2097939 7.32942113 -10.41778511 6.6636531 -8.625 6 C-7.62726563 5.62875 -6.62953125 5.2575 -5.6015625 4.875 C-3 4 -3 4 -1 4 C-0.67 2.68 -0.34 1.36 0 0 Z " fill="#0C1222" transform="translate(225,207)"/>
<path d="M0 0 C0.33 0 0.66 0 1 0 C1.10349817 6.41688675 0.74507544 12.62694402 0 19 C-1.98 19 -3.96 19 -6 19 C-6 18.34 -6 17.68 -6 17 C-4.68 17 -3.36 17 -2 17 C-2.061875 15.576875 -2.061875 15.576875 -2.125 14.125 C-2.14484508 9.29272342 -1.05774196 4.69372996 0 0 Z " fill="#0E1117" transform="translate(305,307)"/>
<path d="M0 0 C1.875 2 1.875 2 3 4 C1.01432292 3.67447917 -0.97135417 3.34895833 -2.95703125 3.0234375 C-5.31755824 2.80422152 -5.31755824 2.80422152 -8 5 C-8.2502157 8.08365871 -8.2502157 8.08365871 -8 11 C-8.66 11 -9.32 11 -10 11 C-11.03321725 7.71249056 -11.20141923 6.42202124 -9.6875 3.25 C-6.90739659 -0.45680455 -4.49025063 -0.45818884 0 0 Z " fill="#060816" transform="translate(215,253)"/>
<path d="M0 0 C-1 3 -1 3 -4.1875 4.75 C-7.75651895 6.15263913 -10.27715262 6.125512 -14 5 C-14.66 4.34 -15.32 3.68 -16 3 C-12.71136247 1.90378749 -10.34522867 1.99880546 -6.9375 2.16015625 C-4.11882501 1.92716094 -2.8595275 0 0 0 Z " fill="#070B18" transform="translate(298,321)"/>
<path d="M0 0 C0.33 0 0.66 0 1 0 C1.103125 1.11375 1.20625 2.2275 1.3125 3.375 C1.539375 4.57125 1.76625 5.7675 2 7 C4.91765 8.9451 6.62537285 9.45276317 10 10 C9.67 10.99 9.34 11.98 9 13 C3.58657319 11.85485202 1.0657052 10.65987191 -2 6 C-1.34 5.67 -0.68 5.34 0 5 C0 3.35 0 1.7 0 0 Z " fill="#070914" transform="translate(180,314)"/>
<path d="M0 0 C0.99 0.99 1.98 1.98 3 3 C-0.3 2.67 -3.6 2.34 -7 2 C-7 2.66 -7 3.32 -7 4 C-8 5 -9 6 -10 7 C-11.17574711 9.09989652 -11.17574711 9.09989652 -12 11 C-12.66 10.01 -13.32 9.02 -14 8 C-13.23883449 6.84772177 -12.46567307 5.7033614 -11.6875 4.5625 C-11.25824219 3.92441406 -10.82898438 3.28632813 -10.38671875 2.62890625 C-7.63545737 -0.60285711 -3.95284534 -0.32940378 0 0 Z " fill="#242C40" transform="translate(292,306)"/>
<path d="M0 0 C0.99 0.33 1.98 0.66 3 1 C2.67 1.99 2.34 2.98 2 4 C2.32759934 6.33414529 2.66073053 8.66752239 3 11 C2.67 11.66 2.34 12.32 2 13 C1.34 13 0.68 13 0 13 C-2.21474076 7.95531271 -1.85072153 5.14089313 0 0 Z " fill="#1B2339" transform="translate(213,305)"/>
<path d="M0 0 C1.36125 0.12375 1.36125 0.12375 2.75 0.25 C3.41 1.57 4.07 2.89 4.75 4.25 C2.44 3.92 0.13 3.59 -2.25 3.25 C-2.58 4.9 -2.91 6.55 -3.25 8.25 C-4.57 6.93 -5.89 5.61 -7.25 4.25 C-4.83923194 1.28290085 -3.90322061 0.30024774 0 0 Z " fill="#111826" transform="translate(188.25,311.75)"/>
<path d="M0 0 C1.32 0 2.64 0 4 0 C3.98259766 0.90492188 3.98259766 0.90492188 3.96484375 1.828125 C3.95582031 2.62734375 3.94679688 3.4265625 3.9375 4.25 C3.92589844 5.03890625 3.91429687 5.8278125 3.90234375 6.640625 C3.99614694 8.90691002 4.36758937 10.8288895 5 13 C3.68 12.34 2.36 11.68 1 11 C1 8.03 1 5.06 1 2 C0.34 1.67 -0.32 1.34 -1 1 C-0.67 0.67 -0.34 0.34 0 0 Z " fill="#070D1C" transform="translate(311,309)"/>
<path d="M0 0 C2.1875 0.3125 2.1875 0.3125 4 1 C3.67 2.65 3.34 4.3 3 6 C1.35 6 -0.3 6 -2 6 C-2.33 5.01 -2.66 4.02 -3 3 C-1.75 1.4375 -1.75 1.4375 0 0 Z " fill="#0C0F16" transform="translate(222,302)"/>
<path d="M0 0 C8.19256018 -0.4726477 8.19256018 -0.4726477 11.5625 1.5 C12.036875 1.995 12.51125 2.49 13 3 C12.67 3.99 12.34 4.98 12 6 C11.525625 5.505 11.05125 5.01 10.5625 4.5 C6.79641649 2.29546331 3.26540621 2.75391887 -1 3 C-0.67 2.01 -0.34 1.02 0 0 Z " fill="#070917" transform="translate(165,304)"/>
<path d="M0 0 C0.721875 0.495 1.44375 0.99 2.1875 1.5 C5.14848659 3.07919285 6.71253029 3.28178312 10 3 C10.33 2.01 10.66 1.02 11 0 C11.33 0.99 11.66 1.98 12 3 C9.53884629 5.27183419 8.26379801 5.9736202 4.875 6.3125 C2 6 2 6 0 4 C0 2.68 0 1.36 0 0 Z " fill="#191F2E" transform="translate(181,317)"/>
<path d="M0 0 C0.99 0.33 1.98 0.66 3 1 C4.72795352 1.06802967 6.45835365 1.08495645 8.1875 1.0625 C9.08855469 1.05347656 9.98960937 1.04445313 10.91796875 1.03515625 C11.94857422 1.01775391 11.94857422 1.01775391 13 1 C13 1.99 13 2.98 13 4 C11.20841511 4.02696365 9.41671527 4.04637917 7.625 4.0625 C6.62726563 4.07410156 5.62953125 4.08570313 4.6015625 4.09765625 C2 4 2 4 0 3 C0 2.01 0 1.02 0 0 Z " fill="#070913" transform="translate(249,327)"/>
<path d="M0 0 C0.99 0.99 1.98 1.98 3 3 C-1.73279673 4.96237913 -5.00152882 5.17611086 -10 4 C-10.33 3.34 -10.66 2.68 -11 2 C-9.39125 2.061875 -9.39125 2.061875 -7.75 2.125 C-4.34252515 2.0114175 -2.79260369 1.78726636 0 0 Z " fill="#141B2C" transform="translate(294,318)"/>
<path d="M0 0 C-2.5654594 2.5654594 -4.47686668 2.54046087 -8 3 C-8.33 5.64 -8.66 8.28 -9 11 C-9.66 10.67 -10.32 10.34 -11 10 C-10.40550688 3.69837297 -10.40550688 3.69837297 -8.875 1.0625 C-5.96905769 -0.58420065 -3.26178195 -0.18462917 0 0 Z " fill="#070A1A" transform="translate(215,174)"/>
<path d="M0 0 C0.66 0.33 1.32 0.66 2 1 C1.70703125 2.98567708 1.4140625 4.97135417 1.12109375 6.95703125 C0.86095201 9.2025342 0.86095201 9.2025342 2 12 C1.401875 11.690625 0.80375 11.38125 0.1875 11.0625 C-2.08956772 9.89790296 -2.08956772 9.89790296 -5 9 C-5 8.34 -5 7.68 -5 7 C-3.68 6.67 -2.36 6.34 -1 6 C-1.020625 5.195625 -1.04125 4.39125 -1.0625 3.5625 C-1 1 -1 1 0 0 Z " fill="#0B1122" transform="translate(260,313)"/>
<path d="M0 0 C1.32 0.33 2.64 0.66 4 1 C3.67 1.66 3.34 2.32 3 3 C2.77377919 4.70363822 2.59111527 6.41328701 2.4375 8.125 C2.31181641 9.49011719 2.31181641 9.49011719 2.18359375 10.8828125 C2.12300781 11.58148438 2.06242188 12.28015625 2 13 C1.34 13 0.68 13 0 13 C0 8.71 0 4.42 0 0 Z " fill="#192134" transform="translate(231,311)"/>
<path d="M0 0 C2 2 2 2 2.0625 5.375 C2.041875 6.57125 2.02125 7.7675 2 9 C2.42854995 11.31036915 2.42854995 11.31036915 3 13 C2.34 13 1.68 13 1 13 C0.01 9.04 -0.98 5.08 -2 1 C-1.34 0.67 -0.68 0.34 0 0 Z " fill="#0D1120" transform="translate(222,193)"/>
<path d="M0 0 C0.99 0.495 0.99 0.495 2 1 C2.226875 1.78375 2.45375 2.5675 2.6875 3.375 C4.61977406 7.23954812 6.99780579 7.59182056 11 9 C11 9.33 11 9.66 11 10 C6.94219787 10.47183746 5.43804676 10.33329645 2.125 7.8125 C0 5 0 5 -0.3125 2.1875 C-0.209375 1.465625 -0.10625 0.74375 0 0 Z " fill="#0B1220" transform="translate(248,315)"/>
<path d="M0 0 C2 3 2 3 3 6 C3.66 6.33 4.32 6.66 5 7 C4.67 7.66 4.34 8.32 4 9 C0.5625 7.8125 0.5625 7.8125 -3 6 C-3.9375 3.3125 -3.9375 3.3125 -4 1 C-2.68 0.67 -1.36 0.34 0 0 Z " fill="#131825" transform="translate(238,308)"/>
<path d="M0 0 C0.99 0.33 1.98 0.66 3 1 C2.67 1.33 2.34 1.66 2 2 C1.92851801 3.35243917 1.91600546 4.70834367 1.9375 6.0625 C1.958125 7.361875 1.97875 8.66125 2 10 C1.01 9.67 0.02 9.34 -1 9 C-1.625 6.1875 -1.625 6.1875 -2 3 C-1.34 2.01 -0.68 1.02 0 0 Z " fill="#040E21" transform="translate(283,310)"/>
<path d="M0 0 C2.1640625 0.99609375 2.1640625 0.99609375 4.625 2.4375 C5.44226563 2.91058594 6.25953125 3.38367188 7.1015625 3.87109375 C7.72804688 4.24363281 8.35453125 4.61617187 9 5 C8.67 5.66 8.34 6.32 8 7 C6.6696875 6.2575 6.6696875 6.2575 5.3125 5.5 C2.12413762 4.05621326 0.41812454 3.69840078 -3 4 C-2.67 3.01 -2.34 2.02 -2 1 C-1.34 0.67 -0.68 0.34 0 0 Z " fill="#060C1B" transform="translate(251,201)"/>
<path d="M0 0 C0.99 0 1.98 0 3 0 C3.226875 0.639375 3.45375 1.27875 3.6875 1.9375 C4.85250896 4.27193661 4.85250896 4.27193661 7.625 4.75 C8.40875 4.8325 9.1925 4.915 10 5 C10 5.99 10 6.98 10 8 C3.51510574 6.53172205 3.51510574 6.53172205 1.0625 4 C0 2 0 2 0 0 Z " fill="#1E2637" transform="translate(249,316)"/>
<path d="M0 0 C0.66 0 1.32 0 2 0 C1.88637738 1.4800841 1.75877092 2.95910074 1.625 4.4375 C1.55539063 5.26121094 1.48578125 6.08492188 1.4140625 6.93359375 C1.27742187 7.61550781 1.14078125 8.29742187 1 9 C0.01 9.495 0.01 9.495 -1 10 C-2.36118461 7.75804887 -3.06138028 6.52173238 -2.75 3.875 C-2 2 -2 2 0 0 Z " fill="#060D1D" transform="translate(205,312)"/>
<path d="M0 0 C0.66 0.66 1.32 1.32 2 2 C-1.96 3.98 -5.92 5.96 -10 8 C-8.76736651 4.30209954 -7.79947549 4.0645154 -4.4375 2.3125 C-3.61121094 1.87550781 -2.78492188 1.43851563 -1.93359375 0.98828125 C-1.29550781 0.66214844 -0.65742188 0.33601562 0 0 Z " fill="#050A1A" transform="translate(246,204)"/>
<path d="M0 0 C0.66 0 1.32 0 2 0 C2 3.63 2 7.26 2 11 C1.34 11 0.68 11 0 11 C-0.84098656 6.98195309 -1.05404945 3.98196457 0 0 Z " fill="#101522" transform="translate(264,311)"/>
<path d="M0 0 C3.48670834 1.1094072 6.77484237 2.26337666 10 4 C10 4.99 10 5.98 10 7 C9.34 7 8.68 7 8 7 C8 6.34 8 5.68 8 5 C7.01 5 6.02 5 5 5 C5 4.34 5 3.68 5 3 C3.35 2.67 1.7 2.34 0 2 C0 1.34 0 0.68 0 0 Z " fill="#121924" transform="translate(286,197)"/>
<path d="M0 0 C3.3 0 6.6 0 10 0 C9.67 0.99 9.34 1.98 9 3 C6.36 3 3.72 3 1 3 C0.67 2.01 0.34 1.02 0 0 Z " fill="#111726" transform="translate(250,325)"/>
<path d="M0 0 C0.33 0 0.66 0 1 0 C1.0825 1.0725 1.165 2.145 1.25 3.25 C2.05476902 7.2738451 2.87729874 8.48169253 6 11 C1.125 10.125 1.125 10.125 0 9 C-0.07179964 7.48071962 -0.08392007 5.95832518 -0.0625 4.4375 C-0.05347656 3.61121094 -0.04445313 2.78492188 -0.03515625 1.93359375 C-0.02355469 1.29550781 -0.01195312 0.65742188 0 0 Z " fill="#212A3D" transform="translate(311,313)"/>
<path d="M0 0 C0.66 0.33 1.32 0.66 2 1 C0.375 3.5 0.375 3.5 -2 6 C-5.25 6.3125 -5.25 6.3125 -8 6 C-8 5.34 -8 4.68 -8 4 C-6.865625 3.71125 -5.73125 3.4225 -4.5625 3.125 C-3.386875 2.75375 -2.21125 2.3825 -1 2 C-0.67 1.34 -0.34 0.68 0 0 Z " fill="#0A0D19" transform="translate(257,284)"/>
<path d="M0 0 C0.928125 0.165 1.85625 0.33 2.8125 0.5 C5.95621353 1.07748388 5.95621353 1.07748388 9 1 C7.68 2.32 6.36 3.64 5 5 C2.5 3.625 2.5 3.625 0 2 C0 1.34 0 0.68 0 0 Z " fill="#0B0E1F" transform="translate(234,275)"/>
<path d="M0 0 C2.64 0 5.28 0 8 0 C7.67 0.99 7.34 1.98 7 3 C4.05610218 4.17755913 3.10046087 4.03348696 0 3 C0 2.01 0 1.02 0 0 Z " fill="#080B16" transform="translate(311,323)"/>
<path d="M0 0 C0.66 0 1.32 0 2 0 C0.375 5.75 0.375 5.75 -3 8 C-2.25 2.25 -2.25 2.25 0 0 Z " fill="#141A2A" transform="translate(280,307)"/>
<path d="M0 0 C0 0.33 0 0.66 0 1 C-2.97 1.66 -5.94 2.32 -9 3 C-9 2.01 -9 1.02 -9 0 C-5.93109813 -1.53445094 -3.29905734 -0.54984289 0 0 Z " fill="#060A19" transform="translate(291,305)"/>
<path d="M0 0 C0.66 0 1.32 0 2 0 C2 1.65 2 3.3 2 5 C2.9590625 5.433125 2.9590625 5.433125 3.9375 5.875 C6 7 6 7 7 9 C3.34683329 7.75023244 2.21934164 7.32901247 0 4 C0 2.68 0 1.36 0 0 Z " fill="#171B2A" transform="translate(223,167)"/>
<path d="M0 0 C0.66 0.33 1.32 0.66 2 1 C-0.46153846 4.81538462 -0.46153846 4.81538462 -3.1875 5.75 C-3.785625 5.8325 -4.38375 5.915 -5 6 C-5.33 5.01 -5.66 4.02 -6 3 C-5.195625 2.690625 -4.39125 2.38125 -3.5625 2.0625 C-1.10919595 1.23664655 -1.10919595 1.23664655 0 0 Z " fill="#151A2D" transform="translate(341,318)"/>
<path d="M0 0 C1.32 0.33 2.64 0.66 4 1 C4 1.99 4 2.98 4 4 C2.02 4.66 0.04 5.32 -2 6 C-1.34 4.02 -0.68 2.04 0 0 Z " fill="#0D1220" transform="translate(292,258)"/>
<path d="M0 0 C3.465 1.98 3.465 1.98 7 4 C6.67 4.99 6.34 5.98 6 7 C3 5.1875 3 5.1875 0 3 C0 2.01 0 1.02 0 0 Z " fill="#151E2C" transform="translate(251,266)"/>
<path d="M0 0 C0.2475 0.5775 0.495 1.155 0.75 1.75 C2.16683317 4.3002997 3.87627537 6.01785701 6 8 C3.64035727 7.59316505 2.14065912 7.10185661 0.1875 5.6875 C-1 4 -1 4 -0.6875 1.8125 C-0.460625 1.214375 -0.23375 0.61625 0 0 Z " fill="#121727" transform="translate(245,180)"/>
<path d="M0 0 C0.66 0 1.32 0 2 0 C2.268125 0.61875 2.53625 1.2375 2.8125 1.875 C3.95556848 4.2995233 3.95556848 4.2995233 7 6 C3.62537285 5.45276317 1.91765 4.9451 -1 3 C-0.67 2.01 -0.34 1.02 0 0 Z " fill="#222A3A" transform="translate(201,318)"/>
<path d="M0 0 C0.99 0.33 1.98 0.66 3 1 C2.67 3.31 2.34 5.62 2 8 C1.34 8 0.68 8 0 8 C0 5.36 0 2.72 0 0 Z " fill="#131E2D" transform="translate(309,310)"/>
<path d="M0 0 C1.98 0.66 3.96 1.32 6 2 C5.67 3.32 5.34 4.64 5 6 C4.34 5.34 3.68 4.68 3 4 C1.67607028 2.98758315 0.34400833 1.98560611 -1 1 C-0.67 0.67 -0.34 0.34 0 0 Z " fill="#090D1E" transform="translate(220,250)"/>
<path d="" fill="#000000" transform="translate(0,0)"/>
</svg>
